<?xml version="1.0" encoding="UTF-8"?>
<mxfile host="app.diagrams.net" agent="Mozilla/5.0 (Macintosh; Intel Mac OS X 10_15_7) AppleWebKit/537.36 (KHTML, like Gecko) Chrome/130.0.0.0 Safari/537.36" version="25.0.1" pages="2">
  <diagram name="roadmap" id="ibeQ_NPm9Ws8Q2NVBOhH">
    <mxGraphModel dx="5216" dy="4599" grid="1" gridSize="10" guides="1" tooltips="1" connect="1" arrows="1" fold="1" page="1" pageScale="1" pageWidth="827" pageHeight="1169" math="0" shadow="0">
      <root>
        <mxCell id="0" />
        <mxCell id="1" parent="0" />
        <mxCell id="Hzh1mJP5wVOQQ3vWL0mh-2" value="" style="shape=rect;fillColor=#fff2cc;strokeColor=none;fontSize=24;html=1;whiteSpace=wrap;align=left;verticalAlign=top;spacing=5;rounded=0;" parent="1" vertex="1">
          <mxGeometry x="-2830" y="-2326.8" width="1610" height="196.8" as="geometry" />
        </mxCell>
        <mxCell id="Hzh1mJP5wVOQQ3vWL0mh-3" value="T1 -&amp;nbsp;Анализ требований и проектирование" style="shape=rect;fillColor=#ffe6cc;strokeColor=#d79b00;fontSize=18;html=1;whiteSpace=wrap;align=left;verticalAlign=top;spacing=5;rounded=0;" parent="1" vertex="1">
          <mxGeometry x="-2810" y="-2300" width="270" height="70" as="geometry" />
        </mxCell>
        <mxCell id="Hzh1mJP5wVOQQ3vWL0mh-4" value="&lt;span style=&quot;text-align: left;&quot;&gt;T2 -&amp;nbsp;&lt;/span&gt;Интеграция с существующими системами" style="shape=rect;fillColor=#ffe6cc;strokeColor=#d79b00;fontSize=18;html=1;whiteSpace=wrap;align=center;verticalAlign=top;spacing=5;rounded=0;" parent="1" vertex="1">
          <mxGeometry x="-2540" y="-2210" width="320" height="60" as="geometry" />
        </mxCell>
        <mxCell id="Hzh1mJP5wVOQQ3vWL0mh-5" value="MVP" style="rounded=0;whiteSpace=wrap;html=1;fillColor=#f5f5f5;fontColor=#333333;strokeColor=#666666;fontSize=18;" parent="1" vertex="1">
          <mxGeometry x="-2960" y="-2326.8" width="120" height="196.8" as="geometry" />
        </mxCell>
        <mxCell id="Hzh1mJP5wVOQQ3vWL0mh-7" value="Q1" style="shape=step;perimeter=stepPerimeter;whiteSpace=wrap;html=1;fixedSize=1;size=10;fillColor=#f5f5f5;strokeColor=#666666;fontSize=18;fontStyle=1;align=center;rounded=0;fontColor=#333333;" parent="1" vertex="1">
          <mxGeometry x="-2830" y="-2420" width="840" height="74.4" as="geometry" />
        </mxCell>
        <mxCell id="HkdTKft1nqYyzUk_klj8-1" value="&lt;span style=&quot;text-align: left;&quot;&gt;T3 -&amp;nbsp;&lt;/span&gt;Разработка функционала" style="shape=rect;fillColor=#ffe6cc;strokeColor=#d79b00;fontSize=18;html=1;whiteSpace=wrap;align=center;verticalAlign=top;spacing=5;rounded=0;" vertex="1" parent="1">
          <mxGeometry x="-2200" y="-2290" width="320" height="60" as="geometry" />
        </mxCell>
        <mxCell id="HkdTKft1nqYyzUk_klj8-2" value="&lt;span style=&quot;text-align: left;&quot;&gt;T4 -&amp;nbsp;&lt;/span&gt;Тестирование" style="shape=rect;fillColor=#ffe6cc;strokeColor=#d79b00;fontSize=18;html=1;whiteSpace=wrap;align=center;verticalAlign=top;spacing=5;rounded=0;" vertex="1" parent="1">
          <mxGeometry x="-2060" y="-2210" width="300" height="60" as="geometry" />
        </mxCell>
        <mxCell id="Oxl4Vu2tQ3MB6dANnVLk-1" value="&lt;span style=&quot;text-align: left;&quot;&gt;T5-&amp;nbsp;&lt;/span&gt;Финальная проверка и отладка" style="shape=rect;fillColor=#ffe6cc;strokeColor=#d79b00;fontSize=18;html=1;whiteSpace=wrap;align=center;verticalAlign=top;spacing=5;rounded=0;" vertex="1" parent="1">
          <mxGeometry x="-1720" y="-2290" width="300" height="60" as="geometry" />
        </mxCell>
        <mxCell id="Oxl4Vu2tQ3MB6dANnVLk-2" value="&lt;span style=&quot;text-align: left;&quot;&gt;T6 -&amp;nbsp;&lt;/span&gt;Запуск MVP" style="shape=rect;fillColor=#ffe6cc;strokeColor=#d79b00;fontSize=18;html=1;whiteSpace=wrap;align=center;verticalAlign=top;spacing=5;rounded=0;" vertex="1" parent="1">
          <mxGeometry x="-1620" y="-2210" width="300" height="60" as="geometry" />
        </mxCell>
        <mxCell id="Oxl4Vu2tQ3MB6dANnVLk-3" value="Q2" style="shape=step;perimeter=stepPerimeter;whiteSpace=wrap;html=1;fixedSize=1;size=10;fillColor=#f5f5f5;strokeColor=#666666;fontSize=18;fontStyle=1;align=center;rounded=0;fontColor=#333333;" vertex="1" parent="1">
          <mxGeometry x="-1980" y="-2420" width="760" height="74.4" as="geometry" />
        </mxCell>
      </root>
    </mxGraphModel>
  </diagram>
  <diagram id="Kjx0dY9pPNRcRsLKt_5Q" name="Roadmap_change">
    <mxGraphModel dx="5428" dy="4720" grid="1" gridSize="10" guides="1" tooltips="1" connect="1" arrows="1" fold="1" page="1" pageScale="1" pageWidth="827" pageHeight="1169" math="0" shadow="0">
      <root>
        <mxCell id="0" />
        <mxCell id="1" parent="0" />
        <mxCell id="6B4HuRd827X05GpxP5VM-11" value="" style="shape=rect;fillColor=#fff2cc;strokeColor=none;fontSize=24;html=1;whiteSpace=wrap;align=left;verticalAlign=top;spacing=5;rounded=0;" vertex="1" parent="1">
          <mxGeometry x="-2820" y="-2316.8" width="1610" height="196.8" as="geometry" />
        </mxCell>
        <mxCell id="6B4HuRd827X05GpxP5VM-12" value="T1 -&amp;nbsp;Анализ новых требований" style="shape=rect;fillColor=#ffe6cc;strokeColor=#d79b00;fontSize=18;html=1;whiteSpace=wrap;align=left;verticalAlign=top;spacing=5;rounded=0;" vertex="1" parent="1">
          <mxGeometry x="-2800" y="-2290" width="270" height="70" as="geometry" />
        </mxCell>
        <mxCell id="6B4HuRd827X05GpxP5VM-13" value="&lt;span style=&quot;text-align: left;&quot;&gt;T2 -&amp;nbsp;&lt;/span&gt;Техническая интеграция" style="shape=rect;fillColor=#ffe6cc;strokeColor=#d79b00;fontSize=18;html=1;whiteSpace=wrap;align=center;verticalAlign=top;spacing=5;rounded=0;" vertex="1" parent="1">
          <mxGeometry x="-2530" y="-2200" width="320" height="60" as="geometry" />
        </mxCell>
        <mxCell id="6B4HuRd827X05GpxP5VM-14" value="MVP" style="rounded=0;whiteSpace=wrap;html=1;fillColor=#f5f5f5;fontColor=#333333;strokeColor=#666666;fontSize=18;" vertex="1" parent="1">
          <mxGeometry x="-2950" y="-2316.8" width="120" height="196.8" as="geometry" />
        </mxCell>
        <mxCell id="6B4HuRd827X05GpxP5VM-15" value="Q3" style="shape=step;perimeter=stepPerimeter;whiteSpace=wrap;html=1;fixedSize=1;size=10;fillColor=#f5f5f5;strokeColor=#666666;fontSize=18;fontStyle=1;align=center;rounded=0;fontColor=#333333;" vertex="1" parent="1">
          <mxGeometry x="-2820" y="-2410" width="840" height="74.4" as="geometry" />
        </mxCell>
        <mxCell id="6B4HuRd827X05GpxP5VM-16" value="&lt;span style=&quot;text-align: left;&quot;&gt;T3 -&amp;nbsp;&lt;/span&gt;Реализация функций" style="shape=rect;fillColor=#ffe6cc;strokeColor=#d79b00;fontSize=18;html=1;whiteSpace=wrap;align=center;verticalAlign=top;spacing=5;rounded=0;" vertex="1" parent="1">
          <mxGeometry x="-2190" y="-2280" width="320" height="60" as="geometry" />
        </mxCell>
        <mxCell id="6B4HuRd827X05GpxP5VM-17" value="&lt;span style=&quot;text-align: left;&quot;&gt;T4 -&amp;nbsp;&lt;/span&gt;Тестирование и оптимизация" style="shape=rect;fillColor=#ffe6cc;strokeColor=#d79b00;fontSize=18;html=1;whiteSpace=wrap;align=center;verticalAlign=top;spacing=5;rounded=0;" vertex="1" parent="1">
          <mxGeometry x="-2050" y="-2200" width="300" height="60" as="geometry" />
        </mxCell>
        <mxCell id="6B4HuRd827X05GpxP5VM-18" value="&lt;span style=&quot;text-align: left;&quot;&gt;T5-&amp;nbsp;&lt;/span&gt;Финальная интеграция" style="shape=rect;fillColor=#ffe6cc;strokeColor=#d79b00;fontSize=18;html=1;whiteSpace=wrap;align=center;verticalAlign=top;spacing=5;rounded=0;" vertex="1" parent="1">
          <mxGeometry x="-1710" y="-2280" width="300" height="60" as="geometry" />
        </mxCell>
        <mxCell id="6B4HuRd827X05GpxP5VM-19" value="&lt;span style=&quot;text-align: left;&quot;&gt;T6 -&amp;nbsp;&lt;/span&gt;Запуск и оценка" style="shape=rect;fillColor=#ffe6cc;strokeColor=#d79b00;fontSize=18;html=1;whiteSpace=wrap;align=center;verticalAlign=top;spacing=5;rounded=0;" vertex="1" parent="1">
          <mxGeometry x="-1610" y="-2200" width="300" height="60" as="geometry" />
        </mxCell>
        <mxCell id="6B4HuRd827X05GpxP5VM-20" value="Q4" style="shape=step;perimeter=stepPerimeter;whiteSpace=wrap;html=1;fixedSize=1;size=10;fillColor=#f5f5f5;strokeColor=#666666;fontSize=18;fontStyle=1;align=center;rounded=0;fontColor=#333333;" vertex="1" parent="1">
          <mxGeometry x="-1970" y="-2410" width="760" height="74.4" as="geometry" />
        </mxCell>
      </root>
    </mxGraphModel>
  </diagram>
</mxfile>
